<?xml version="1.0" standalone="no"?>
<!DOCTYPE svg PUBLIC "-//W3C//DTD SVG 20010904//EN"
 "http://www.w3.org/TR/2001/REC-SVG-20010904/DTD/svg10.dtd">
<svg version="1.0" xmlns="http://www.w3.org/2000/svg"
 width="2362.000000pt" height="2362.000000pt" viewBox="0 0 2362.000000 2362.000000"
 preserveAspectRatio="xMidYMid meet">
<metadata>
Created by potrace 1.14, written by Peter Selinger 2001-2017
</metadata>
<g transform="translate(0.000000,2362.000000) scale(0.100000,-0.100000)"
fill="#000000" stroke="none">
<path d="M11742 23464 c-12 -8 -60 -72 -106 -142 -47 -70 -110 -158 -140 -197
-30 -38 -100 -142 -157 -230 -56 -88 -132 -196 -169 -240 -36 -44 -97 -125
-135 -180 -109 -161 -242 -340 -353 -479 -56 -70 -109 -141 -118 -157 -8 -16
-18 -29 -23 -29 -4 0 -36 -42 -71 -92 -35 -51 -87 -120 -115 -153 -73 -86
-125 -156 -254 -342 -30 -43 -73 -99 -95 -124 -45 -51 -81 -101 -139 -192 -21
-33 -69 -95 -105 -137 -81 -94 -135 -166 -167 -228 -13 -26 -52 -76 -86 -112
-33 -36 -77 -90 -97 -120 -20 -30 -50 -71 -68 -90 -18 -19 -61 -74 -96 -122
-35 -48 -135 -183 -224 -300 -88 -117 -177 -238 -197 -269 -19 -31 -40 -60
-47 -64 -6 -4 -38 -48 -71 -98 -34 -50 -95 -134 -138 -187 -42 -52 -110 -141
-151 -198 -41 -56 -116 -158 -165 -226 -50 -68 -110 -146 -133 -173 -24 -26
-85 -104 -137 -173 -52 -69 -181 -240 -287 -381 -106 -141 -255 -344 -331
-450 -147 -207 -269 -368 -355 -469 -29 -34 -61 -79 -72 -100 -21 -41 -143
-208 -216 -295 -23 -27 -70 -90 -105 -140 -34 -49 -88 -121 -118 -158 -31 -38
-73 -90 -93 -115 -42 -52 -111 -146 -147 -201 -13 -20 -45 -61 -71 -91 -25
-30 -56 -71 -68 -90 -11 -20 -33 -47 -47 -60 -15 -14 -45 -52 -68 -85 -22 -33
-50 -71 -63 -85 -29 -31 -77 -97 -200 -275 -53 -77 -120 -165 -147 -195 -48
-53 -210 -267 -272 -359 -17 -25 -65 -90 -107 -145 -43 -55 -78 -106 -78 -114
0 -8 56 -128 125 -266 69 -138 125 -257 125 -264 0 -6 18 -49 39 -94 93 -195
187 -399 223 -486 43 -103 323 -702 398 -852 48 -96 114 -240 245 -540 40 -91
123 -268 185 -395 61 -126 120 -248 130 -270 10 -22 51 -107 90 -190 40 -82
85 -181 100 -220 16 -38 47 -113 70 -165 23 -52 54 -124 69 -160 16 -36 48
-103 73 -150 25 -47 75 -143 112 -215 38 -71 78 -148 91 -170 12 -22 44 -98
69 -169 48 -131 101 -256 221 -516 36 -80 75 -163 85 -185 10 -22 48 -105 85
-185 38 -80 80 -174 95 -210 38 -90 251 -541 410 -865 72 -148 142 -301 155
-340 23 -69 63 -158 192 -425 36 -74 108 -227 160 -340 52 -113 121 -260 154
-328 32 -68 71 -153 85 -189 15 -36 53 -119 85 -185 33 -65 59 -121 59 -123 0
-3 16 -39 35 -81 19 -41 35 -77 35 -79 0 -13 137 -310 215 -470 52 -104 110
-227 129 -272 18 -45 47 -104 63 -130 41 -67 120 -241 128 -283 4 -19 37 -91
74 -160 63 -120 101 -195 226 -450 32 -63 88 -185 125 -270 81 -185 180 -410
220 -500 15 -36 53 -121 83 -190 117 -266 384 -834 441 -940 35 -64 175 -381
231 -526 35 -88 93 -218 128 -290 61 -122 84 -172 171 -374 21 -47 81 -175
135 -285 119 -240 183 -374 250 -517 57 -125 76 -136 106 -65 40 91 218 472
230 491 19 29 83 178 110 256 12 36 45 105 73 154 29 50 59 110 68 135 9 25
35 87 57 136 63 143 93 213 137 320 71 170 157 359 241 528 44 89 89 186 99
215 11 29 28 65 38 80 17 25 55 110 104 237 10 28 64 141 119 253 55 111 111
231 124 265 30 80 197 425 241 497 18 31 47 92 65 135 17 44 63 143 101 220
80 159 113 235 169 388 22 60 78 186 126 280 142 281 150 298 187 406 20 57
69 167 109 245 39 77 101 202 136 276 35 74 103 216 151 315 48 99 104 223
124 275 21 52 50 122 66 155 16 33 56 123 88 200 33 77 83 192 112 255 28 63
58 138 66 165 14 45 72 174 217 475 51 105 118 261 163 378 13 34 41 97 63
140 21 42 55 115 74 162 31 75 90 194 155 315 33 61 162 331 162 338 0 4 18
46 41 94 86 185 98 211 137 298 22 50 72 164 112 255 40 91 87 197 105 235 70
146 208 451 218 480 6 17 43 93 83 170 40 77 80 169 89 205 11 42 26 75 45 95
16 17 47 75 69 130 42 107 90 201 127 250 31 41 75 140 146 330 33 88 70 187
83 220 12 33 26 71 30 84 4 13 21 47 37 75 17 28 60 125 95 216 77 196 84 210
128 258 18 20 38 56 44 79 21 79 89 237 164 386 41 81 78 160 82 175 3 15 27
72 52 127 24 55 53 123 64 150 18 50 202 419 218 439 5 6 11 28 15 48 7 40
141 310 198 399 20 31 58 107 86 170 27 63 73 166 101 229 28 62 51 124 51
136 0 12 -19 45 -42 74 -77 93 -102 127 -156 211 -76 121 -303 419 -556 732
-89 109 -189 238 -224 285 -34 48 -73 96 -86 107 -12 11 -48 58 -80 105 -31
47 -95 135 -142 195 -47 61 -117 157 -156 215 -39 58 -87 125 -107 150 -21 25
-58 74 -84 110 -26 36 -67 90 -92 120 -24 30 -47 66 -50 81 -3 14 -29 55 -58
90 -28 35 -85 109 -126 164 -41 55 -101 130 -135 166 -78 84 -112 128 -168
214 -87 135 -98 151 -183 260 -142 183 -280 370 -370 500 -45 66 -150 198
-248 313 -21 24 -63 79 -94 121 -31 42 -91 115 -132 162 -42 47 -132 162 -201
255 -119 160 -173 229 -223 284 -13 14 -40 55 -60 91 -20 36 -58 90 -84 120
-27 30 -90 113 -141 184 -51 72 -105 146 -120 165 -74 96 -268 338 -289 360
-56 62 -303 389 -303 402 0 6 -14 28 -31 49 -17 21 -52 78 -78 126 -42 78 -53
91 -98 116 -41 22 -59 40 -94 100 -100 170 -236 356 -352 484 -29 32 -66 78
-81 103 -16 25 -64 83 -106 130 -43 47 -87 107 -98 133 -12 26 -48 78 -80 115
-65 75 -126 155 -168 222 -15 25 -49 68 -74 97 -99 113 -131 154 -235 308 -59
88 -145 210 -190 270 -45 61 -114 156 -153 212 -94 134 -121 152 -170 117z
m147 -346 c127 -155 190 -240 205 -279 9 -23 45 -77 79 -120 34 -43 97 -125
140 -181 43 -57 146 -193 230 -302 162 -212 213 -284 255 -356 14 -25 63 -88
107 -140 45 -52 110 -133 145 -180 35 -47 89 -114 121 -150 31 -36 97 -124
145 -195 48 -72 116 -166 150 -210 35 -44 119 -154 187 -245 68 -91 163 -217
211 -280 48 -63 120 -158 159 -210 66 -88 232 -297 302 -379 17 -20 55 -79 85
-131 30 -52 99 -151 155 -220 55 -69 115 -146 133 -170 152 -209 314 -421 382
-500 45 -52 96 -115 113 -140 77 -111 409 -545 584 -761 29 -36 53 -71 53 -77
0 -6 9 -16 20 -22 11 -6 43 -45 71 -88 29 -42 60 -86 71 -98 10 -11 27 -36 36
-55 10 -19 81 -113 158 -209 78 -96 152 -193 166 -215 14 -22 44 -62 66 -89
22 -27 38 -55 35 -62 -6 -17 -2 -24 151 -239 199 -281 626 -863 855 -1165 175
-231 207 -274 237 -320 17 -27 52 -71 79 -99 26 -27 57 -67 69 -88 12 -21 47
-73 77 -116 74 -108 102 -157 90 -157 -6 0 -50 14 -98 30 -47 17 -93 30 -100
30 -8 0 -49 14 -91 31 -305 123 -1059 362 -1312 414 -19 4 -73 23 -120 42 -86
35 -250 83 -435 129 -113 27 -215 66 -262 101 -18 13 -55 28 -83 33 -139 26
-534 146 -710 215 -47 18 -107 37 -135 42 -143 28 -899 274 -950 309 -11 8
-28 14 -39 14 -22 0 -201 54 -256 77 -19 8 -59 19 -89 24 -29 4 -72 18 -95 30
-22 12 -70 32 -104 46 -35 13 -80 32 -100 42 -21 10 -71 26 -112 36 -41 9
-142 39 -225 67 -177 59 -437 137 -480 145 -16 3 -57 18 -91 34 -64 30 -189
57 -216 46 -11 -4 -18 -24 -22 -64 -20 -178 -29 -1469 -32 -4198 -1 -1644 -3
-3116 -5 -3270 -2 -154 2 -476 8 -715 9 -307 9 -616 3 -1050 -5 -338 -10 -952
-10 -1365 -1 -412 -5 -892 -10 -1065 -6 -204 -5 -432 2 -645 7 -212 8 -427 2
-600 l-8 -270 -8 155 c-6 135 -9 811 -11 2475 -1 635 0 684 11 1125 8 285 8
442 1 530 -16 188 -26 1147 -16 1460 7 228 2 1296 -9 1585 -16 456 -27 1091
-23 1350 7 547 -3 1334 -18 1375 -3 8 -3 452 -1 985 3 1003 3 1391 -1 2160 -1
248 3 601 10 785 7 196 9 451 5 615 -21 893 -20 866 -17 1665 2 355 0 701 -3
770 -5 93 4 473 14 615 0 6 -2 105 -4 220 -2 116 0 271 6 345 11 136 11 492 1
805 -3 94 -4 179 -3 190 1 11 3 67 4 125 2 58 8 118 15 133 6 16 11 46 11 68
0 41 14 79 29 79 5 0 32 -28 60 -62z m-484 -6308 c-41 -19 -74 -26 -61 -12 10
10 68 30 86 30 8 1 -3 -8 -25 -18z m-140 -50 c-27 -11 -61 -26 -75 -33 -14 -8
-45 -17 -70 -21 l-45 -7 57 31 c32 16 68 30 80 30 13 0 30 5 38 10 8 5 26 10
40 9 18 0 12 -5 -25 -19z m-220 -67 c-11 -3 -81 -25 -156 -49 -75 -24 -142
-44 -150 -44 -31 1 34 39 77 46 24 3 47 10 50 15 3 5 17 9 32 9 15 1 38 7 52
15 14 8 45 14 70 13 25 0 36 -2 25 -5z m-435 -143 c0 -25 -280 -138 -403 -164
-43 -9 -112 -29 -152 -45 -41 -17 -107 -36 -147 -44 -40 -8 -140 -42 -223 -77
-178 -74 -384 -144 -587 -200 -81 -22 -207 -63 -280 -90 -73 -28 -207 -76
-298 -106 -91 -31 -190 -69 -220 -84 -48 -24 -152 -61 -169 -60 -10 1 53 33
99 51 120 45 251 100 281 118 19 10 50 22 69 26 40 8 250 84 265 96 6 5 31 11
55 15 25 4 72 20 105 36 33 15 68 28 78 28 25 0 146 41 287 97 187 75 421 155
476 163 28 4 68 17 90 27 21 11 91 33 154 48 63 15 142 38 175 50 33 13 112
43 175 68 63 24 122 47 130 50 24 9 40 8 40 -3z m-2551 -894 c-14 -12 -225
-97 -279 -112 -36 -9 -86 -28 -111 -40 -132 -66 -319 -130 -572 -198 -54 -15
-164 -50 -245 -78 -81 -28 -201 -66 -267 -85 -66 -19 -149 -48 -185 -65 -61
-29 -184 -62 -175 -47 9 13 175 79 238 94 36 8 98 29 138 46 41 17 92 36 114
44 58 20 187 58 206 62 9 1 49 18 89 37 45 22 82 33 95 30 12 -3 43 3 71 14
27 11 69 22 94 26 25 4 63 17 85 30 79 47 142 73 221 90 43 10 88 23 99 30 37
23 404 140 384 122z m-2004 -706 c-27 -12 -43 -12 -25 0 8 5 22 9 30 9 10 0 8
-3 -5 -9z m-145 -55 c0 -7 -43 -23 -78 -30 -21 -4 -18 -1 13 15 39 19 65 25
65 15z m-530 -390 c0 -9 -6 -12 -15 -9 -8 4 -15 10 -15 15 0 5 7 9 15 9 8 0
15 -7 15 -15z m170 -60 c0 -13 -4 -14 -20 -5 -11 6 -20 13 -20 15 0 3 9 5 20
5 11 0 20 -7 20 -15z m295 -105 c23 -26 4 -26 -26 0 -18 15 -20 19 -8 20 9 0
24 -9 34 -20z m11566 7 c-6 -8 -30 -19 -53 -26 -24 -7 -65 -22 -93 -33 -120
-47 -80 -21 50 33 99 42 113 45 96 26z m-11487 -39 c-15 -7 -28 -7 -40 1 -16
9 -12 10 21 10 35 0 37 -2 19 -11z m257 -70 c3 -5 39 -14 80 -19 41 -6 97 -19
124 -29 321 -117 305 -111 240 -104 -33 3 -69 9 -80 14 -11 5 -51 22 -90 39
-38 17 -101 35 -140 41 -131 20 -215 52 -185 70 14 9 41 2 51 -12z m10932 -13
c-40 -19 -150 -59 -246 -88 -95 -30 -191 -64 -214 -76 -23 -11 -50 -21 -58
-21 -33 0 -172 -43 -235 -73 -37 -17 -84 -31 -111 -33 -25 -1 -61 -10 -78 -19
-18 -9 -54 -19 -81 -22 -26 -3 -66 -16 -87 -29 -70 -42 -127 -65 -196 -80 -38
-8 -89 -23 -115 -33 -77 -32 -216 -79 -281 -96 -33 -8 -68 -18 -78 -21 -10 -3
2 6 27 20 25 14 101 44 169 66 69 22 163 58 210 79 103 46 281 105 486 162 83
23 229 67 325 99 96 32 209 65 250 75 41 9 82 21 90 26 44 27 134 63 200 79
103 26 106 24 23 -15z m-10117 -226 c32 -6 86 -24 119 -40 33 -16 101 -38 151
-49 189 -41 250 -60 649 -205 50 -18 103 -38 120 -44 16 -7 84 -28 150 -46 66
-19 181 -54 255 -78 75 -25 156 -48 180 -52 24 -4 105 -27 180 -50 74 -23 151
-46 170 -49 19 -4 89 -25 155 -46 66 -22 190 -55 275 -75 85 -20 175 -46 199
-57 80 -36 225 -89 472 -173 135 -46 272 -96 305 -110 32 -15 73 -28 89 -30
55 -7 179 -43 235 -69 30 -14 50 -26 43 -26 -31 0 -196 45 -340 94 -88 30
-178 58 -199 62 -22 3 -43 10 -49 14 -23 16 -185 71 -240 81 -64 12 -115 34
-115 49 0 5 -19 14 -42 20 -24 6 -68 22 -98 35 -30 14 -77 27 -105 29 -83 7
-149 24 -216 55 -35 16 -118 46 -184 65 -66 20 -169 55 -228 77 -60 21 -150
48 -200 59 -51 12 -121 30 -156 42 -35 11 -89 24 -120 28 -31 5 -103 24 -161
44 -58 19 -132 42 -165 51 -33 9 -73 23 -90 32 -16 8 -59 23 -95 33 -36 10
-110 33 -165 50 -126 41 -224 69 -400 116 -132 35 -259 84 -315 124 -14 9 -45
20 -70 24 -25 4 -52 11 -60 16 -20 13 -7 12 66 -1z m8195 -415 c-29 -13 -59
-24 -67 -24 -7 0 -15 -4 -18 -9 -7 -11 -155 -66 -161 -59 -8 8 263 118 290
117 6 0 -14 -11 -44 -25z m-4404 -790 c-3 -3 -12 -4 -19 -1 -8 3 -5 6 6 6 11
1 17 -2 13 -5z m134 -26 c44 -11 77 -23 74 -26 -12 -12 -85 0 -140 23 -76 31
-42 33 66 3z m928 -10167 c0 -470 -1 -852 -3 -850 -2 2 -6 400 -8 884 -2 484
-1 867 3 850 4 -16 7 -414 8 -884z"/>
</g>
</svg>
